# xmcd CD database file
#
# Track frame offsets:
#	150
#	18793
#	32630
#	47247
#	61084
#	80787
#	95962
#	114689
#	135687
#	162327
#
# Disc length: 2380 seconds
#
# Revision: 0
# Processed by: cddbd v1.5.2PL0 Copyright (c) Steve Scherf et al.
# Submitted via: CDex 1.51
#
DISCID=85094a0a
DTITLE=One Leg Up - Gypsy Blue
DYEAR=2004
DGENRE=Jazz
TTITLE0=Sweet Sue
TTITLE1=Douce Ambiance
TTITLE2=Exactly Like You
TTITLE3=Tico Tico
TTITLE4=Django's Castle
TTITLE5=Belleville
TTITLE6=Cheek to Cheek
TTITLE7=Gypsy Blue
TTITLE8=Blue Drag
TTITLE9=Dark Eyes
EXTD=YEAR: 2004
EXTT0=
EXTT1=
EXTT2=
EXTT3=
EXTT4=
EXTT5=
EXTT6=
EXTT7=
EXTT8=
EXTT9=
PLAYORDER=
